# xmcd
#
# Track frame offsets:
#	150
#	14003
#	28599
#	44582
#	56642
#	74610
#	89191
#	102080
#	121975
#	140123
#	159042
#	170759
#	188516
#	203923
#	221089
#	235069
#	251208
#	268859
#
# Disc length: 4006
#
# Revision: 2
# Processed by: cddbd v1.5.1PL0 Copyright (c) Steve Scherf et al.
# Submitted via: dBpowerAMP V4.0
# Normalized: r0:TDELIM( - );r1:TSWAP
#
DISCID=160fa412
DTITLE=Various Artist - The Best Of The Best Country
DYEAR=1900
DGENRE=Country
TTITLE0=Dr Hook - Walk Right In
TTITLE1=Keith Urban - Arms Of Mary
TTITLE2=The Band - The Night They Drove Old Dixie Down
TTITLE3=Glen Campbell - Galveston
TTITLE4=Anne Kirkpatrick - Out Of The Blue
TTITLE5=Highwaymen - The Devil's Right Hand
TTITLE6=Kasey Chambers - This Flower
TTITLE7=Paul Kelly and Uncle Bill - Our Sunshine
TTITLE8=James Blundell and James Reyne - Way Out West
TTITLE9=Tanya Tucker - Two Sparrows In A Hurricane
TTITLE10=Chris Ledoux with Garth Brooks - Watcha Gonna Do With A Cowboy
TTITLE11=Steve Warner - Faith In You
TTITLE12=Deana Carter - We Danced Anyway
TTITLE13=Lee Kernaghan - Collingullie Station
TTITLE14=Slim Dusty - The Lights On The Hill
TTITLE15=John Williamson - Three Sons
TTITLE16=Gina Jeffreys - Josephine
TTITLE17=Eric Bogle - And The Band Played Waltzing Matilda
EXTD=
EXTT0=
EXTT1=
EXTT2=
EXTT3=
EXTT4=
EXTT5=
EXTT6=
EXTT7=
EXTT8=
EXTT9=
EXTT10=
EXTT11=
EXTT12=
EXTT13=
EXTT14=
EXTT15=
EXTT16=
EXTT17=
PLAYORDER=
